<mxfile host="app.diagrams.net" agent="Mozilla/5.0 (Windows NT 10.0; Win64; x64) AppleWebKit/537.36 (KHTML, like Gecko) Chrome/131.0.0.0 Safari/537.36" version="25.0.1">
  <diagram name="Страница — 1" id="N1nn2I79Rf5UAUPFaAsr">
    <mxGraphModel dx="1461" dy="1109" grid="1" gridSize="10" guides="1" tooltips="1" connect="1" arrows="1" fold="1" page="0" pageScale="1" pageWidth="827" pageHeight="1169" math="0" shadow="0">
      <root>
        <mxCell id="0" />
        <mxCell id="1" parent="0" />
        <mxCell id="Z-guXmiOLJFSRZxOtz11-1" value="" style="ellipse;whiteSpace=wrap;html=1;aspect=fixed;" parent="1" vertex="1">
          <mxGeometry x="-160" y="160" width="80" height="80" as="geometry" />
        </mxCell>
        <mxCell id="Z-guXmiOLJFSRZxOtz11-2" value="" style="endArrow=none;html=1;rounded=0;exitX=0.5;exitY=1;exitDx=0;exitDy=0;" parent="1" source="Z-guXmiOLJFSRZxOtz11-1" edge="1">
          <mxGeometry width="50" height="50" relative="1" as="geometry">
            <mxPoint x="-50" y="280" as="sourcePoint" />
            <mxPoint x="-120" y="360" as="targetPoint" />
          </mxGeometry>
        </mxCell>
        <mxCell id="Z-guXmiOLJFSRZxOtz11-3" value="" style="endArrow=none;html=1;rounded=0;exitX=0.5;exitY=0;exitDx=0;exitDy=0;" parent="1" source="Z-guXmiOLJFSRZxOtz11-1" edge="1">
          <mxGeometry width="50" height="50" relative="1" as="geometry">
            <mxPoint x="-50" y="280" as="sourcePoint" />
            <mxPoint x="-120" y="40" as="targetPoint" />
          </mxGeometry>
        </mxCell>
        <mxCell id="Z-guXmiOLJFSRZxOtz11-4" value="" style="endArrow=none;html=1;rounded=0;" parent="1" edge="1">
          <mxGeometry width="50" height="50" relative="1" as="geometry">
            <mxPoint x="-120" y="360" as="sourcePoint" />
            <mxPoint x="40" y="360" as="targetPoint" />
          </mxGeometry>
        </mxCell>
        <mxCell id="Z-guXmiOLJFSRZxOtz11-5" value="" style="rounded=0;whiteSpace=wrap;html=1;direction=south;" parent="1" vertex="1">
          <mxGeometry x="20" y="160" width="40" height="80" as="geometry" />
        </mxCell>
        <mxCell id="Z-guXmiOLJFSRZxOtz11-6" value="" style="endArrow=none;html=1;rounded=0;entryX=1;entryY=0.5;entryDx=0;entryDy=0;" parent="1" target="Z-guXmiOLJFSRZxOtz11-5" edge="1">
          <mxGeometry width="50" height="50" relative="1" as="geometry">
            <mxPoint x="40" y="360" as="sourcePoint" />
            <mxPoint x="90" y="230" as="targetPoint" />
          </mxGeometry>
        </mxCell>
        <mxCell id="Z-guXmiOLJFSRZxOtz11-7" value="" style="endArrow=none;html=1;rounded=0;exitX=0;exitY=0.5;exitDx=0;exitDy=0;" parent="1" source="Z-guXmiOLJFSRZxOtz11-5" edge="1">
          <mxGeometry width="50" height="50" relative="1" as="geometry">
            <mxPoint x="40" y="280" as="sourcePoint" />
            <mxPoint x="40" y="40" as="targetPoint" />
          </mxGeometry>
        </mxCell>
        <mxCell id="Z-guXmiOLJFSRZxOtz11-8" value="" style="endArrow=none;html=1;rounded=0;" parent="1" edge="1">
          <mxGeometry width="50" height="50" relative="1" as="geometry">
            <mxPoint x="-120" y="40" as="sourcePoint" />
            <mxPoint x="40" y="40" as="targetPoint" />
          </mxGeometry>
        </mxCell>
        <mxCell id="Z-guXmiOLJFSRZxOtz11-9" value="" style="endArrow=none;html=1;rounded=0;" parent="1" edge="1">
          <mxGeometry width="50" height="50" relative="1" as="geometry">
            <mxPoint x="40" y="40" as="sourcePoint" />
            <mxPoint x="120" y="40" as="targetPoint" />
          </mxGeometry>
        </mxCell>
        <mxCell id="Z-guXmiOLJFSRZxOtz11-10" value="" style="pointerEvents=1;verticalLabelPosition=bottom;shadow=0;dashed=0;align=center;html=1;verticalAlign=top;shape=mxgraph.electrical.inductors.inductor_3;" parent="1" vertex="1">
          <mxGeometry x="120" y="32" width="80" height="8" as="geometry" />
        </mxCell>
        <mxCell id="Z-guXmiOLJFSRZxOtz11-11" value="" style="endArrow=none;html=1;rounded=0;exitX=1;exitY=1;exitDx=0;exitDy=0;exitPerimeter=0;" parent="1" source="Z-guXmiOLJFSRZxOtz11-10" edge="1">
          <mxGeometry width="50" height="50" relative="1" as="geometry">
            <mxPoint x="120" y="280" as="sourcePoint" />
            <mxPoint x="280" y="40" as="targetPoint" />
          </mxGeometry>
        </mxCell>
        <mxCell id="Z-guXmiOLJFSRZxOtz11-12" value="" style="endArrow=none;html=1;rounded=0;" parent="1" edge="1">
          <mxGeometry width="50" height="50" relative="1" as="geometry">
            <mxPoint x="40" y="360" as="sourcePoint" />
            <mxPoint x="280" y="360" as="targetPoint" />
          </mxGeometry>
        </mxCell>
        <mxCell id="Z-guXmiOLJFSRZxOtz11-13" value="" style="endArrow=none;html=1;rounded=0;" parent="1" edge="1">
          <mxGeometry width="50" height="50" relative="1" as="geometry">
            <mxPoint x="280" y="160" as="sourcePoint" />
            <mxPoint x="280" y="40" as="targetPoint" />
          </mxGeometry>
        </mxCell>
        <mxCell id="Z-guXmiOLJFSRZxOtz11-14" value="" style="endArrow=none;html=1;rounded=0;" parent="1" edge="1">
          <mxGeometry width="50" height="50" relative="1" as="geometry">
            <mxPoint x="280" y="360" as="sourcePoint" />
            <mxPoint x="280" y="240" as="targetPoint" />
          </mxGeometry>
        </mxCell>
        <mxCell id="Z-guXmiOLJFSRZxOtz11-17" value="" style="endArrow=none;html=1;rounded=0;" parent="1" edge="1">
          <mxGeometry width="50" height="50" relative="1" as="geometry">
            <mxPoint x="280" y="40" as="sourcePoint" />
            <mxPoint x="360" y="40" as="targetPoint" />
          </mxGeometry>
        </mxCell>
        <mxCell id="Z-guXmiOLJFSRZxOtz11-18" value="" style="pointerEvents=1;verticalLabelPosition=bottom;shadow=0;dashed=0;align=center;html=1;verticalAlign=top;shape=mxgraph.electrical.inductors.inductor_3;direction=east;" parent="1" vertex="1">
          <mxGeometry x="360" y="32" width="80" height="8" as="geometry" />
        </mxCell>
        <mxCell id="Z-guXmiOLJFSRZxOtz11-19" value="" style="pointerEvents=1;verticalLabelPosition=bottom;shadow=0;dashed=0;align=center;html=1;verticalAlign=top;shape=mxgraph.electrical.inductors.inductor_3;direction=east;" parent="1" vertex="1">
          <mxGeometry x="360" y="352" width="80" height="8" as="geometry" />
        </mxCell>
        <mxCell id="Z-guXmiOLJFSRZxOtz11-20" value="" style="pointerEvents=1;verticalLabelPosition=bottom;shadow=0;dashed=0;align=center;html=1;verticalAlign=top;shape=mxgraph.electrical.capacitors.capacitor_1;direction=south;" parent="1" vertex="1">
          <mxGeometry x="250" y="150" width="60" height="100" as="geometry" />
        </mxCell>
        <mxCell id="Z-guXmiOLJFSRZxOtz11-21" value="" style="endArrow=none;html=1;rounded=0;entryX=0;entryY=1;entryDx=0;entryDy=0;entryPerimeter=0;" parent="1" target="Z-guXmiOLJFSRZxOtz11-19" edge="1">
          <mxGeometry width="50" height="50" relative="1" as="geometry">
            <mxPoint x="280" y="360" as="sourcePoint" />
            <mxPoint x="350" y="340" as="targetPoint" />
          </mxGeometry>
        </mxCell>
        <mxCell id="Z-guXmiOLJFSRZxOtz11-22" value="" style="endArrow=none;html=1;rounded=0;entryX=1;entryY=1;entryDx=0;entryDy=0;entryPerimeter=0;" parent="1" target="Z-guXmiOLJFSRZxOtz11-18" edge="1">
          <mxGeometry width="50" height="50" relative="1" as="geometry">
            <mxPoint x="520" y="40" as="sourcePoint" />
            <mxPoint x="390" y="320" as="targetPoint" />
          </mxGeometry>
        </mxCell>
        <mxCell id="Z-guXmiOLJFSRZxOtz11-23" value="" style="endArrow=none;html=1;rounded=0;exitX=1;exitY=1;exitDx=0;exitDy=0;exitPerimeter=0;" parent="1" source="Z-guXmiOLJFSRZxOtz11-19" edge="1">
          <mxGeometry width="50" height="50" relative="1" as="geometry">
            <mxPoint x="340" y="370" as="sourcePoint" />
            <mxPoint x="520" y="360" as="targetPoint" />
          </mxGeometry>
        </mxCell>
        <mxCell id="Z-guXmiOLJFSRZxOtz11-24" value="" style="rounded=0;whiteSpace=wrap;html=1;direction=south;" parent="1" vertex="1">
          <mxGeometry x="500" y="160" width="40" height="80" as="geometry" />
        </mxCell>
        <mxCell id="Z-guXmiOLJFSRZxOtz11-25" value="" style="endArrow=none;html=1;rounded=0;entryX=0;entryY=0.5;entryDx=0;entryDy=0;" parent="1" target="Z-guXmiOLJFSRZxOtz11-24" edge="1">
          <mxGeometry width="50" height="50" relative="1" as="geometry">
            <mxPoint x="520" y="40" as="sourcePoint" />
            <mxPoint x="350" y="320" as="targetPoint" />
          </mxGeometry>
        </mxCell>
        <mxCell id="Z-guXmiOLJFSRZxOtz11-26" value="" style="endArrow=none;html=1;rounded=0;entryX=1;entryY=0.5;entryDx=0;entryDy=0;" parent="1" target="Z-guXmiOLJFSRZxOtz11-24" edge="1">
          <mxGeometry width="50" height="50" relative="1" as="geometry">
            <mxPoint x="520" y="360" as="sourcePoint" />
            <mxPoint x="350" y="320" as="targetPoint" />
          </mxGeometry>
        </mxCell>
        <mxCell id="Z-guXmiOLJFSRZxOtz11-27" value="&lt;b&gt;&lt;font style=&quot;font-size: 18px;&quot;&gt;J&lt;sub&gt;вх&lt;/sub&gt;&lt;/font&gt;&lt;/b&gt;" style="text;html=1;align=center;verticalAlign=middle;whiteSpace=wrap;rounded=0;" parent="1" vertex="1">
          <mxGeometry x="-90" y="200" width="60" height="30" as="geometry" />
        </mxCell>
        <mxCell id="Z-guXmiOLJFSRZxOtz11-28" value="" style="endArrow=none;html=1;rounded=0;exitX=0.5;exitY=0;exitDx=0;exitDy=0;entryX=1;entryY=1;entryDx=0;entryDy=0;" parent="1" target="Z-guXmiOLJFSRZxOtz11-1" edge="1">
          <mxGeometry width="50" height="50" relative="1" as="geometry">
            <mxPoint x="-120" y="160" as="sourcePoint" />
            <mxPoint x="-90" y="240" as="targetPoint" />
          </mxGeometry>
        </mxCell>
        <mxCell id="Z-guXmiOLJFSRZxOtz11-29" value="" style="endArrow=none;html=1;rounded=0;exitX=0.5;exitY=0;exitDx=0;exitDy=0;entryX=0;entryY=1;entryDx=0;entryDy=0;" parent="1" source="Z-guXmiOLJFSRZxOtz11-1" target="Z-guXmiOLJFSRZxOtz11-1" edge="1">
          <mxGeometry width="50" height="50" relative="1" as="geometry">
            <mxPoint x="-190" y="220" as="sourcePoint" />
            <mxPoint x="-162" y="288" as="targetPoint" />
          </mxGeometry>
        </mxCell>
        <mxCell id="Z-guXmiOLJFSRZxOtz11-30" value="" style="endArrow=none;html=1;rounded=0;entryX=0.267;entryY=0.922;entryDx=0;entryDy=0;entryPerimeter=0;" parent="1" target="Z-guXmiOLJFSRZxOtz11-1" edge="1">
          <mxGeometry width="50" height="50" relative="1" as="geometry">
            <mxPoint x="-120" y="190" as="sourcePoint" />
            <mxPoint x="-140" y="240" as="targetPoint" />
          </mxGeometry>
        </mxCell>
        <mxCell id="Z-guXmiOLJFSRZxOtz11-31" value="" style="endArrow=none;html=1;rounded=0;entryX=0.738;entryY=0.964;entryDx=0;entryDy=0;entryPerimeter=0;" parent="1" target="Z-guXmiOLJFSRZxOtz11-1" edge="1">
          <mxGeometry width="50" height="50" relative="1" as="geometry">
            <mxPoint x="-120" y="190" as="sourcePoint" />
            <mxPoint x="-60" y="320" as="targetPoint" />
          </mxGeometry>
        </mxCell>
        <mxCell id="Z-guXmiOLJFSRZxOtz11-32" value="&lt;font size=&quot;3&quot;&gt;&lt;b&gt;R&lt;sub&gt;1&lt;/sub&gt;=30&lt;/b&gt;&lt;/font&gt;" style="text;html=1;align=center;verticalAlign=middle;whiteSpace=wrap;rounded=0;" parent="1" vertex="1">
          <mxGeometry x="60" y="185" width="60" height="30" as="geometry" />
        </mxCell>
        <mxCell id="Z-guXmiOLJFSRZxOtz11-33" value="&lt;font size=&quot;3&quot;&gt;&lt;b&gt;L&lt;sub&gt;2&lt;/sub&gt;=2,5&lt;/b&gt;&lt;/font&gt;" style="text;html=1;align=center;verticalAlign=middle;whiteSpace=wrap;rounded=0;" parent="1" vertex="1">
          <mxGeometry x="130" y="-10" width="60" height="30" as="geometry" />
        </mxCell>
        <mxCell id="Z-guXmiOLJFSRZxOtz11-34" value="&lt;font size=&quot;3&quot;&gt;&lt;b&gt;C&lt;sub&gt;4&lt;/sub&gt;=40&lt;/b&gt;&lt;/font&gt;" style="text;html=1;align=center;verticalAlign=middle;whiteSpace=wrap;rounded=0;" parent="1" vertex="1">
          <mxGeometry x="300" y="210" width="60" height="30" as="geometry" />
        </mxCell>
        <mxCell id="Z-guXmiOLJFSRZxOtz11-35" value="&lt;font size=&quot;3&quot;&gt;L&lt;sub&gt;5&lt;/sub&gt;=1,25&lt;/font&gt;" style="text;html=1;align=center;verticalAlign=middle;whiteSpace=wrap;rounded=0;" parent="1" vertex="1">
          <mxGeometry x="370" y="-10" width="60" height="30" as="geometry" />
        </mxCell>
        <mxCell id="Z-guXmiOLJFSRZxOtz11-36" value="&lt;font size=&quot;3&quot;&gt;L&lt;sub&gt;6&lt;/sub&gt;=1,25&lt;/font&gt;" style="text;html=1;align=center;verticalAlign=middle;whiteSpace=wrap;rounded=0;" parent="1" vertex="1">
          <mxGeometry x="370" y="380" width="60" height="30" as="geometry" />
        </mxCell>
        <mxCell id="Z-guXmiOLJFSRZxOtz11-37" value="&lt;font size=&quot;3&quot;&gt;&lt;b&gt;R&lt;sub&gt;7&lt;/sub&gt;=30&lt;/b&gt;&lt;/font&gt;" style="text;html=1;align=center;verticalAlign=middle;whiteSpace=wrap;rounded=0;" parent="1" vertex="1">
          <mxGeometry x="430" y="190" width="60" height="30" as="geometry" />
        </mxCell>
        <mxCell id="Z-guXmiOLJFSRZxOtz11-38" value="" style="endArrow=classic;html=1;rounded=0;" parent="1" edge="1">
          <mxGeometry width="50" height="50" relative="1" as="geometry">
            <mxPoint x="520" y="280" as="sourcePoint" />
            <mxPoint x="520" y="320" as="targetPoint" />
          </mxGeometry>
        </mxCell>
        <mxCell id="Z-guXmiOLJFSRZxOtz11-39" value="&lt;b style=&quot;&quot;&gt;&lt;font size=&quot;3&quot;&gt;i&lt;/font&gt;&lt;span style=&quot;font-size: 13.3333px;&quot;&gt;н&lt;/span&gt;&lt;/b&gt;" style="text;html=1;align=center;verticalAlign=middle;whiteSpace=wrap;rounded=0;" parent="1" vertex="1">
          <mxGeometry x="530" y="280" width="60" height="30" as="geometry" />
        </mxCell>
        <mxCell id="Z-guXmiOLJFSRZxOtz11-114" value="" style="ellipse;whiteSpace=wrap;html=1;aspect=fixed;" parent="1" vertex="1">
          <mxGeometry x="-170" y="640" width="80" height="80" as="geometry" />
        </mxCell>
        <mxCell id="Z-guXmiOLJFSRZxOtz11-115" value="" style="endArrow=none;html=1;rounded=0;exitX=0.5;exitY=1;exitDx=0;exitDy=0;" parent="1" source="Z-guXmiOLJFSRZxOtz11-114" edge="1">
          <mxGeometry width="50" height="50" relative="1" as="geometry">
            <mxPoint x="-60" y="760" as="sourcePoint" />
            <mxPoint x="-130" y="840" as="targetPoint" />
          </mxGeometry>
        </mxCell>
        <mxCell id="Z-guXmiOLJFSRZxOtz11-116" value="" style="endArrow=none;html=1;rounded=0;exitX=0.5;exitY=0;exitDx=0;exitDy=0;" parent="1" source="Z-guXmiOLJFSRZxOtz11-114" edge="1">
          <mxGeometry width="50" height="50" relative="1" as="geometry">
            <mxPoint x="-60" y="760" as="sourcePoint" />
            <mxPoint x="-130" y="520" as="targetPoint" />
          </mxGeometry>
        </mxCell>
        <mxCell id="Z-guXmiOLJFSRZxOtz11-117" value="" style="endArrow=none;html=1;rounded=0;" parent="1" edge="1">
          <mxGeometry width="50" height="50" relative="1" as="geometry">
            <mxPoint x="-130" y="840" as="sourcePoint" />
            <mxPoint x="30" y="840" as="targetPoint" />
          </mxGeometry>
        </mxCell>
        <mxCell id="Z-guXmiOLJFSRZxOtz11-118" value="" style="rounded=0;whiteSpace=wrap;html=1;direction=south;" parent="1" vertex="1">
          <mxGeometry x="10" y="640" width="40" height="80" as="geometry" />
        </mxCell>
        <mxCell id="Z-guXmiOLJFSRZxOtz11-119" value="" style="endArrow=none;html=1;rounded=0;entryX=1;entryY=0.5;entryDx=0;entryDy=0;" parent="1" target="Z-guXmiOLJFSRZxOtz11-118" edge="1">
          <mxGeometry width="50" height="50" relative="1" as="geometry">
            <mxPoint x="30" y="840" as="sourcePoint" />
            <mxPoint x="80" y="710" as="targetPoint" />
          </mxGeometry>
        </mxCell>
        <mxCell id="Z-guXmiOLJFSRZxOtz11-120" value="" style="endArrow=none;html=1;rounded=0;exitX=0;exitY=0.5;exitDx=0;exitDy=0;" parent="1" source="Z-guXmiOLJFSRZxOtz11-118" edge="1">
          <mxGeometry width="50" height="50" relative="1" as="geometry">
            <mxPoint x="30" y="760" as="sourcePoint" />
            <mxPoint x="30" y="520" as="targetPoint" />
          </mxGeometry>
        </mxCell>
        <mxCell id="Z-guXmiOLJFSRZxOtz11-121" value="" style="endArrow=none;html=1;rounded=0;" parent="1" edge="1">
          <mxGeometry width="50" height="50" relative="1" as="geometry">
            <mxPoint x="-130" y="520" as="sourcePoint" />
            <mxPoint x="30" y="520" as="targetPoint" />
          </mxGeometry>
        </mxCell>
        <mxCell id="Z-guXmiOLJFSRZxOtz11-122" value="" style="endArrow=none;html=1;rounded=0;" parent="1" edge="1">
          <mxGeometry width="50" height="50" relative="1" as="geometry">
            <mxPoint x="30" y="520" as="sourcePoint" />
            <mxPoint x="110" y="520" as="targetPoint" />
          </mxGeometry>
        </mxCell>
        <mxCell id="Z-guXmiOLJFSRZxOtz11-124" value="" style="endArrow=none;html=1;rounded=0;exitX=1;exitY=1;exitDx=0;exitDy=0;exitPerimeter=0;" parent="1" edge="1">
          <mxGeometry width="50" height="50" relative="1" as="geometry">
            <mxPoint x="190" y="520" as="sourcePoint" />
            <mxPoint x="270" y="520" as="targetPoint" />
          </mxGeometry>
        </mxCell>
        <mxCell id="Z-guXmiOLJFSRZxOtz11-125" value="" style="endArrow=none;html=1;rounded=0;" parent="1" edge="1">
          <mxGeometry width="50" height="50" relative="1" as="geometry">
            <mxPoint x="30" y="840" as="sourcePoint" />
            <mxPoint x="270" y="840" as="targetPoint" />
          </mxGeometry>
        </mxCell>
        <mxCell id="Z-guXmiOLJFSRZxOtz11-126" value="" style="endArrow=none;html=1;rounded=0;" parent="1" edge="1">
          <mxGeometry width="50" height="50" relative="1" as="geometry">
            <mxPoint x="270" y="640" as="sourcePoint" />
            <mxPoint x="270" y="520" as="targetPoint" />
          </mxGeometry>
        </mxCell>
        <mxCell id="Z-guXmiOLJFSRZxOtz11-127" value="" style="endArrow=none;html=1;rounded=0;" parent="1" edge="1">
          <mxGeometry width="50" height="50" relative="1" as="geometry">
            <mxPoint x="270" y="840" as="sourcePoint" />
            <mxPoint x="270" y="720" as="targetPoint" />
          </mxGeometry>
        </mxCell>
        <mxCell id="Z-guXmiOLJFSRZxOtz11-128" value="" style="endArrow=none;html=1;rounded=0;" parent="1" edge="1">
          <mxGeometry width="50" height="50" relative="1" as="geometry">
            <mxPoint x="270" y="520" as="sourcePoint" />
            <mxPoint x="350" y="520" as="targetPoint" />
          </mxGeometry>
        </mxCell>
        <mxCell id="Z-guXmiOLJFSRZxOtz11-132" value="" style="endArrow=none;html=1;rounded=0;entryX=0;entryY=1;entryDx=0;entryDy=0;entryPerimeter=0;" parent="1" edge="1">
          <mxGeometry width="50" height="50" relative="1" as="geometry">
            <mxPoint x="270" y="840" as="sourcePoint" />
            <mxPoint x="350" y="840" as="targetPoint" />
          </mxGeometry>
        </mxCell>
        <mxCell id="Z-guXmiOLJFSRZxOtz11-133" value="" style="endArrow=none;html=1;rounded=0;entryX=1;entryY=1;entryDx=0;entryDy=0;entryPerimeter=0;" parent="1" edge="1">
          <mxGeometry width="50" height="50" relative="1" as="geometry">
            <mxPoint x="510" y="520" as="sourcePoint" />
            <mxPoint x="430" y="520" as="targetPoint" />
          </mxGeometry>
        </mxCell>
        <mxCell id="Z-guXmiOLJFSRZxOtz11-134" value="" style="endArrow=none;html=1;rounded=0;exitX=1;exitY=1;exitDx=0;exitDy=0;exitPerimeter=0;" parent="1" edge="1">
          <mxGeometry width="50" height="50" relative="1" as="geometry">
            <mxPoint x="430" y="840" as="sourcePoint" />
            <mxPoint x="510" y="840" as="targetPoint" />
          </mxGeometry>
        </mxCell>
        <mxCell id="Z-guXmiOLJFSRZxOtz11-135" value="" style="rounded=0;whiteSpace=wrap;html=1;direction=south;" parent="1" vertex="1">
          <mxGeometry x="490" y="640" width="40" height="80" as="geometry" />
        </mxCell>
        <mxCell id="Z-guXmiOLJFSRZxOtz11-136" value="" style="endArrow=none;html=1;rounded=0;entryX=0;entryY=0.5;entryDx=0;entryDy=0;" parent="1" target="Z-guXmiOLJFSRZxOtz11-135" edge="1">
          <mxGeometry width="50" height="50" relative="1" as="geometry">
            <mxPoint x="510" y="520" as="sourcePoint" />
            <mxPoint x="340" y="800" as="targetPoint" />
          </mxGeometry>
        </mxCell>
        <mxCell id="Z-guXmiOLJFSRZxOtz11-137" value="" style="endArrow=none;html=1;rounded=0;entryX=1;entryY=0.5;entryDx=0;entryDy=0;" parent="1" target="Z-guXmiOLJFSRZxOtz11-135" edge="1">
          <mxGeometry width="50" height="50" relative="1" as="geometry">
            <mxPoint x="510" y="840" as="sourcePoint" />
            <mxPoint x="340" y="800" as="targetPoint" />
          </mxGeometry>
        </mxCell>
        <mxCell id="Z-guXmiOLJFSRZxOtz11-138" value="&lt;b&gt;&lt;font style=&quot;&quot;&gt;&lt;u style=&quot;&quot;&gt;&lt;span style=&quot;font-size: 18px;&quot;&gt;J&lt;/span&gt;&lt;span style=&quot;font-size: 15px;&quot;&gt;&lt;sub&gt;mk&lt;/sub&gt;&lt;/span&gt;&lt;/u&gt;&lt;/font&gt;&lt;/b&gt;" style="text;html=1;align=center;verticalAlign=middle;whiteSpace=wrap;rounded=0;" parent="1" vertex="1">
          <mxGeometry x="-100" y="680" width="60" height="30" as="geometry" />
        </mxCell>
        <mxCell id="Z-guXmiOLJFSRZxOtz11-139" value="" style="endArrow=none;html=1;rounded=0;exitX=0.5;exitY=0;exitDx=0;exitDy=0;entryX=1;entryY=1;entryDx=0;entryDy=0;" parent="1" target="Z-guXmiOLJFSRZxOtz11-114" edge="1">
          <mxGeometry width="50" height="50" relative="1" as="geometry">
            <mxPoint x="-130" y="640" as="sourcePoint" />
            <mxPoint x="-100" y="720" as="targetPoint" />
          </mxGeometry>
        </mxCell>
        <mxCell id="Z-guXmiOLJFSRZxOtz11-140" value="" style="endArrow=none;html=1;rounded=0;exitX=0.5;exitY=0;exitDx=0;exitDy=0;entryX=0;entryY=1;entryDx=0;entryDy=0;" parent="1" source="Z-guXmiOLJFSRZxOtz11-114" target="Z-guXmiOLJFSRZxOtz11-114" edge="1">
          <mxGeometry width="50" height="50" relative="1" as="geometry">
            <mxPoint x="-200" y="700" as="sourcePoint" />
            <mxPoint x="-172" y="768" as="targetPoint" />
          </mxGeometry>
        </mxCell>
        <mxCell id="Z-guXmiOLJFSRZxOtz11-141" value="" style="endArrow=none;html=1;rounded=0;entryX=0.267;entryY=0.922;entryDx=0;entryDy=0;entryPerimeter=0;" parent="1" target="Z-guXmiOLJFSRZxOtz11-114" edge="1">
          <mxGeometry width="50" height="50" relative="1" as="geometry">
            <mxPoint x="-130" y="670" as="sourcePoint" />
            <mxPoint x="-150" y="720" as="targetPoint" />
          </mxGeometry>
        </mxCell>
        <mxCell id="Z-guXmiOLJFSRZxOtz11-142" value="" style="endArrow=none;html=1;rounded=0;entryX=0.738;entryY=0.964;entryDx=0;entryDy=0;entryPerimeter=0;" parent="1" target="Z-guXmiOLJFSRZxOtz11-114" edge="1">
          <mxGeometry width="50" height="50" relative="1" as="geometry">
            <mxPoint x="-130" y="670" as="sourcePoint" />
            <mxPoint x="-70" y="800" as="targetPoint" />
          </mxGeometry>
        </mxCell>
        <mxCell id="Z-guXmiOLJFSRZxOtz11-143" value="&lt;b&gt;&lt;font style=&quot;font-size: 18px;&quot;&gt;&lt;u&gt;z&lt;/u&gt;&lt;sub&gt;1k&lt;/sub&gt;&lt;/font&gt;&lt;/b&gt;" style="text;html=1;align=center;verticalAlign=middle;whiteSpace=wrap;rounded=0;" parent="1" vertex="1">
          <mxGeometry x="50" y="665" width="60" height="30" as="geometry" />
        </mxCell>
        <mxCell id="Z-guXmiOLJFSRZxOtz11-149" value="" style="endArrow=classic;html=1;rounded=0;" parent="1" edge="1">
          <mxGeometry width="50" height="50" relative="1" as="geometry">
            <mxPoint x="510" y="760" as="sourcePoint" />
            <mxPoint x="510" y="800" as="targetPoint" />
          </mxGeometry>
        </mxCell>
        <mxCell id="Z-guXmiOLJFSRZxOtz11-150" value="&lt;b style=&quot;&quot;&gt;&lt;font style=&quot;font-size: 18px;&quot;&gt;Iнmk&lt;/font&gt;&lt;/b&gt;" style="text;html=1;align=center;verticalAlign=middle;whiteSpace=wrap;rounded=0;" parent="1" vertex="1">
          <mxGeometry x="510" y="780" width="60" height="30" as="geometry" />
        </mxCell>
        <mxCell id="Z-guXmiOLJFSRZxOtz11-151" value="" style="rounded=0;whiteSpace=wrap;html=1;direction=south;" parent="1" vertex="1">
          <mxGeometry x="250" y="640" width="40" height="80" as="geometry" />
        </mxCell>
        <mxCell id="Z-guXmiOLJFSRZxOtz11-152" value="" style="rounded=0;whiteSpace=wrap;html=1;direction=west;" parent="1" vertex="1">
          <mxGeometry x="110" y="500" width="80" height="40" as="geometry" />
        </mxCell>
        <mxCell id="Z-guXmiOLJFSRZxOtz11-153" value="" style="rounded=0;whiteSpace=wrap;html=1;direction=west;" parent="1" vertex="1">
          <mxGeometry x="350" y="500" width="80" height="40" as="geometry" />
        </mxCell>
        <mxCell id="Z-guXmiOLJFSRZxOtz11-154" value="" style="rounded=0;whiteSpace=wrap;html=1;direction=west;" parent="1" vertex="1">
          <mxGeometry x="350" y="820" width="80" height="40" as="geometry" />
        </mxCell>
        <mxCell id="Z-guXmiOLJFSRZxOtz11-155" value="&lt;b&gt;&lt;font style=&quot;font-size: 18px;&quot;&gt;&lt;u&gt;z&lt;sub&gt;2&lt;/sub&gt;&lt;/u&gt;&lt;sub&gt;k&lt;/sub&gt;&lt;/font&gt;&lt;/b&gt;" style="text;html=1;align=center;verticalAlign=middle;whiteSpace=wrap;rounded=0;" parent="1" vertex="1">
          <mxGeometry x="120" y="460" width="60" height="30" as="geometry" />
        </mxCell>
        <mxCell id="Z-guXmiOLJFSRZxOtz11-157" value="&lt;b&gt;&lt;font style=&quot;font-size: 18px;&quot;&gt;&lt;u&gt;z&lt;sub&gt;4&lt;/sub&gt;&lt;/u&gt;&lt;sub&gt;k&lt;/sub&gt;&lt;/font&gt;&lt;/b&gt;" style="text;html=1;align=center;verticalAlign=middle;whiteSpace=wrap;rounded=0;" parent="1" vertex="1">
          <mxGeometry x="290" y="670" width="60" height="30" as="geometry" />
        </mxCell>
        <mxCell id="Z-guXmiOLJFSRZxOtz11-158" value="&lt;b&gt;&lt;font style=&quot;font-size: 18px;&quot;&gt;&lt;u&gt;z&lt;sub&gt;7&lt;/sub&gt;&lt;/u&gt;&lt;sub&gt;k&lt;/sub&gt;&lt;/font&gt;&lt;/b&gt;" style="text;html=1;align=center;verticalAlign=middle;whiteSpace=wrap;rounded=0;" parent="1" vertex="1">
          <mxGeometry x="420" y="660" width="60" height="30" as="geometry" />
        </mxCell>
        <mxCell id="Z-guXmiOLJFSRZxOtz11-159" value="&lt;b&gt;&lt;font style=&quot;font-size: 18px;&quot;&gt;&lt;u&gt;z&lt;sub&gt;5&lt;/sub&gt;&lt;/u&gt;&lt;sub&gt;k&lt;/sub&gt;&lt;/font&gt;&lt;/b&gt;" style="text;html=1;align=center;verticalAlign=middle;whiteSpace=wrap;rounded=0;" parent="1" vertex="1">
          <mxGeometry x="360" y="470" width="60" height="30" as="geometry" />
        </mxCell>
        <mxCell id="Z-guXmiOLJFSRZxOtz11-161" value="&lt;b&gt;&lt;font style=&quot;font-size: 18px;&quot;&gt;&lt;u&gt;z&lt;sub&gt;6&lt;/sub&gt;&lt;/u&gt;&lt;sub&gt;k&lt;/sub&gt;&lt;/font&gt;&lt;/b&gt;" style="text;html=1;align=center;verticalAlign=middle;whiteSpace=wrap;rounded=0;" parent="1" vertex="1">
          <mxGeometry x="360" y="870" width="60" height="30" as="geometry" />
        </mxCell>
        <mxCell id="-2kFy2wtbIJRMzwwEdup-5" value="" style="rounded=0;whiteSpace=wrap;html=1;direction=south;" vertex="1" parent="1">
          <mxGeometry x="50" y="1090" width="40" height="80" as="geometry" />
        </mxCell>
        <mxCell id="-2kFy2wtbIJRMzwwEdup-6" value="" style="endArrow=none;html=1;rounded=0;" edge="1" parent="1">
          <mxGeometry width="50" height="50" relative="1" as="geometry">
            <mxPoint x="70" y="1390" as="sourcePoint" />
            <mxPoint x="70" y="1320" as="targetPoint" />
          </mxGeometry>
        </mxCell>
        <mxCell id="-2kFy2wtbIJRMzwwEdup-7" value="" style="endArrow=none;html=1;rounded=0;exitX=0;exitY=0.5;exitDx=0;exitDy=0;" edge="1" parent="1" source="-2kFy2wtbIJRMzwwEdup-5">
          <mxGeometry width="50" height="50" relative="1" as="geometry">
            <mxPoint x="70" y="1310" as="sourcePoint" />
            <mxPoint x="70" y="1070" as="targetPoint" />
          </mxGeometry>
        </mxCell>
        <mxCell id="-2kFy2wtbIJRMzwwEdup-9" value="" style="endArrow=none;html=1;rounded=0;" edge="1" parent="1">
          <mxGeometry width="50" height="50" relative="1" as="geometry">
            <mxPoint x="70" y="1070" as="sourcePoint" />
            <mxPoint x="230" y="1070" as="targetPoint" />
          </mxGeometry>
        </mxCell>
        <mxCell id="-2kFy2wtbIJRMzwwEdup-10" value="" style="endArrow=none;html=1;rounded=0;exitX=1;exitY=1;exitDx=0;exitDy=0;exitPerimeter=0;" edge="1" parent="1">
          <mxGeometry width="50" height="50" relative="1" as="geometry">
            <mxPoint x="230" y="1070" as="sourcePoint" />
            <mxPoint x="310" y="1070" as="targetPoint" />
          </mxGeometry>
        </mxCell>
        <mxCell id="-2kFy2wtbIJRMzwwEdup-11" value="" style="endArrow=none;html=1;rounded=0;" edge="1" parent="1">
          <mxGeometry width="50" height="50" relative="1" as="geometry">
            <mxPoint x="70" y="1390" as="sourcePoint" />
            <mxPoint x="310" y="1390" as="targetPoint" />
          </mxGeometry>
        </mxCell>
        <mxCell id="-2kFy2wtbIJRMzwwEdup-14" value="" style="endArrow=none;html=1;rounded=0;" edge="1" parent="1">
          <mxGeometry width="50" height="50" relative="1" as="geometry">
            <mxPoint x="310" y="1070" as="sourcePoint" />
            <mxPoint x="390" y="1070" as="targetPoint" />
          </mxGeometry>
        </mxCell>
        <mxCell id="-2kFy2wtbIJRMzwwEdup-15" value="" style="endArrow=none;html=1;rounded=0;entryX=0;entryY=1;entryDx=0;entryDy=0;entryPerimeter=0;" edge="1" parent="1">
          <mxGeometry width="50" height="50" relative="1" as="geometry">
            <mxPoint x="310" y="1390" as="sourcePoint" />
            <mxPoint x="390" y="1390" as="targetPoint" />
          </mxGeometry>
        </mxCell>
        <mxCell id="-2kFy2wtbIJRMzwwEdup-16" value="" style="endArrow=none;html=1;rounded=0;entryX=1;entryY=1;entryDx=0;entryDy=0;entryPerimeter=0;" edge="1" parent="1">
          <mxGeometry width="50" height="50" relative="1" as="geometry">
            <mxPoint x="550" y="1070" as="sourcePoint" />
            <mxPoint x="470" y="1070" as="targetPoint" />
          </mxGeometry>
        </mxCell>
        <mxCell id="-2kFy2wtbIJRMzwwEdup-17" value="" style="endArrow=none;html=1;rounded=0;exitX=1;exitY=1;exitDx=0;exitDy=0;exitPerimeter=0;" edge="1" parent="1">
          <mxGeometry width="50" height="50" relative="1" as="geometry">
            <mxPoint x="470" y="1390" as="sourcePoint" />
            <mxPoint x="550" y="1390" as="targetPoint" />
          </mxGeometry>
        </mxCell>
        <mxCell id="-2kFy2wtbIJRMzwwEdup-18" value="" style="rounded=0;whiteSpace=wrap;html=1;direction=south;" vertex="1" parent="1">
          <mxGeometry x="530" y="1190" width="40" height="80" as="geometry" />
        </mxCell>
        <mxCell id="-2kFy2wtbIJRMzwwEdup-19" value="" style="endArrow=none;html=1;rounded=0;entryX=0;entryY=0.5;entryDx=0;entryDy=0;" edge="1" parent="1" target="-2kFy2wtbIJRMzwwEdup-18">
          <mxGeometry width="50" height="50" relative="1" as="geometry">
            <mxPoint x="550" y="1070" as="sourcePoint" />
            <mxPoint x="380" y="1350" as="targetPoint" />
          </mxGeometry>
        </mxCell>
        <mxCell id="-2kFy2wtbIJRMzwwEdup-20" value="" style="endArrow=none;html=1;rounded=0;entryX=1;entryY=0.5;entryDx=0;entryDy=0;" edge="1" parent="1" target="-2kFy2wtbIJRMzwwEdup-18">
          <mxGeometry width="50" height="50" relative="1" as="geometry">
            <mxPoint x="550" y="1390" as="sourcePoint" />
            <mxPoint x="380" y="1350" as="targetPoint" />
          </mxGeometry>
        </mxCell>
        <mxCell id="-2kFy2wtbIJRMzwwEdup-26" value="&lt;b&gt;&lt;font style=&quot;font-size: 18px;&quot;&gt;&lt;u&gt;z&lt;sub&gt;э&lt;/sub&gt;&lt;/u&gt;&lt;sub&gt;k&lt;/sub&gt;&lt;/font&gt;&lt;/b&gt;" style="text;html=1;align=center;verticalAlign=middle;whiteSpace=wrap;rounded=0;" vertex="1" parent="1">
          <mxGeometry x="90" y="1115" width="60" height="30" as="geometry" />
        </mxCell>
        <mxCell id="-2kFy2wtbIJRMzwwEdup-27" value="" style="endArrow=classic;html=1;rounded=0;" edge="1" parent="1">
          <mxGeometry width="50" height="50" relative="1" as="geometry">
            <mxPoint x="550" y="1310" as="sourcePoint" />
            <mxPoint x="550" y="1350" as="targetPoint" />
          </mxGeometry>
        </mxCell>
        <mxCell id="-2kFy2wtbIJRMzwwEdup-28" value="&lt;b style=&quot;&quot;&gt;&lt;font style=&quot;font-size: 18px;&quot;&gt;Iнmk&lt;/font&gt;&lt;/b&gt;" style="text;html=1;align=center;verticalAlign=middle;whiteSpace=wrap;rounded=0;" vertex="1" parent="1">
          <mxGeometry x="550" y="1330" width="60" height="30" as="geometry" />
        </mxCell>
        <mxCell id="-2kFy2wtbIJRMzwwEdup-31" value="" style="rounded=0;whiteSpace=wrap;html=1;direction=west;" vertex="1" parent="1">
          <mxGeometry x="390" y="1050" width="80" height="40" as="geometry" />
        </mxCell>
        <mxCell id="-2kFy2wtbIJRMzwwEdup-32" value="" style="rounded=0;whiteSpace=wrap;html=1;direction=west;" vertex="1" parent="1">
          <mxGeometry x="390" y="1370" width="80" height="40" as="geometry" />
        </mxCell>
        <mxCell id="-2kFy2wtbIJRMzwwEdup-35" value="&lt;b&gt;&lt;font style=&quot;font-size: 18px;&quot;&gt;&lt;u&gt;z&lt;sub&gt;7&lt;/sub&gt;&lt;/u&gt;&lt;sub&gt;k&lt;/sub&gt;&lt;/font&gt;&lt;/b&gt;" style="text;html=1;align=center;verticalAlign=middle;whiteSpace=wrap;rounded=0;" vertex="1" parent="1">
          <mxGeometry x="460" y="1210" width="60" height="30" as="geometry" />
        </mxCell>
        <mxCell id="-2kFy2wtbIJRMzwwEdup-36" value="&lt;b&gt;&lt;font style=&quot;font-size: 18px;&quot;&gt;&lt;u&gt;z&lt;sub&gt;5&lt;/sub&gt;&lt;/u&gt;&lt;sub&gt;k&lt;/sub&gt;&lt;/font&gt;&lt;/b&gt;" style="text;html=1;align=center;verticalAlign=middle;whiteSpace=wrap;rounded=0;" vertex="1" parent="1">
          <mxGeometry x="400" y="1020" width="60" height="30" as="geometry" />
        </mxCell>
        <mxCell id="-2kFy2wtbIJRMzwwEdup-37" value="&lt;b&gt;&lt;font style=&quot;font-size: 18px;&quot;&gt;&lt;u&gt;z&lt;sub&gt;6&lt;/sub&gt;&lt;/u&gt;&lt;sub&gt;k&lt;/sub&gt;&lt;/font&gt;&lt;/b&gt;" style="text;html=1;align=center;verticalAlign=middle;whiteSpace=wrap;rounded=0;" vertex="1" parent="1">
          <mxGeometry x="400" y="1420" width="60" height="30" as="geometry" />
        </mxCell>
        <mxCell id="-2kFy2wtbIJRMzwwEdup-46" value="&lt;span style=&quot;font-size: 18px;&quot;&gt;&lt;b&gt;&lt;u&gt;E&lt;sub&gt;mk&lt;/sub&gt;&lt;/u&gt;&lt;/b&gt;&lt;/span&gt;" style="text;html=1;align=center;verticalAlign=middle;whiteSpace=wrap;rounded=0;" vertex="1" parent="1">
          <mxGeometry x="110" y="1265" width="60" height="30" as="geometry" />
        </mxCell>
        <mxCell id="-2kFy2wtbIJRMzwwEdup-51" value="" style="ellipse;whiteSpace=wrap;html=1;aspect=fixed;" vertex="1" parent="1">
          <mxGeometry x="30" y="1240" width="80" height="80" as="geometry" />
        </mxCell>
        <mxCell id="-2kFy2wtbIJRMzwwEdup-52" value="" style="endArrow=none;html=1;rounded=0;exitX=1;exitY=0.5;exitDx=0;exitDy=0;entryX=0.5;entryY=0;entryDx=0;entryDy=0;" edge="1" parent="1" source="-2kFy2wtbIJRMzwwEdup-5" target="-2kFy2wtbIJRMzwwEdup-51">
          <mxGeometry width="50" height="50" relative="1" as="geometry">
            <mxPoint x="10" y="1260" as="sourcePoint" />
            <mxPoint x="60" y="1210" as="targetPoint" />
          </mxGeometry>
        </mxCell>
        <mxCell id="-2kFy2wtbIJRMzwwEdup-53" value="" style="endArrow=classic;html=1;rounded=0;exitX=0.5;exitY=1;exitDx=0;exitDy=0;entryX=0.5;entryY=0;entryDx=0;entryDy=0;" edge="1" parent="1" source="-2kFy2wtbIJRMzwwEdup-51" target="-2kFy2wtbIJRMzwwEdup-51">
          <mxGeometry width="50" height="50" relative="1" as="geometry">
            <mxPoint x="20" y="1295" as="sourcePoint" />
            <mxPoint x="250" y="1205" as="targetPoint" />
          </mxGeometry>
        </mxCell>
      </root>
    </mxGraphModel>
  </diagram>
</mxfile>
